# xmcd
#
# Track frame offsets:
#	150
#	16231
#	33134
#	47945
#	67621
#	84644
#	99828
#	115157
#	136867
#	150232
#	164614
#	181357
#	198874
#	218221
#
# Disc length: 3086 seconds
#
# Revision: 0
# Processed by: cddbd v1.5.1PL2 Copyright (c) Steve Scherf et al.
# Submitted via: dBpowerAMP V4.0
#
DISCID=a70c0c0e
DTITLE=Gary McVay - Your Volunteers Stand True
DYEAR=2005
DGENRE=Country
TTITLE0=And They All Came Home But Me (Once A Marine)
TTITLE1=America We Love You (Your Volunteers Stand True)
TTITLE2=The Ballad Of Toby Keith (Freedom's Voice Lives)
TTITLE3=And Have You Ever Known
TTITLE4=The Strong Must Always Run
TTITLE5=Missing Parts In Action (The Ballad Of Captain Rozelle)
TTITLE6=Blue Collar Fighting Man
TTITLE7=Half Her Heart Is In Iraq (Amy's Smile)
TTITLE8=The Ballad Of The Night Stalker (NSDO)
TTITLE9=One Man
TTITLE10=Glory Hallelujah
TTITLE11=The Ultimate Love Story
TTITLE12=Jesus Christ My Lord
TTITLE13=Wonder No More (Look Closely At My Hands)
EXTD=These songs were written by veterans of the war in Iraq. More info can be found at www.gloryland.com
EXTT0=
EXTT1=
EXTT2=
EXTT3=
EXTT4=
EXTT5=
EXTT6=
EXTT7=
EXTT8=
EXTT9=
EXTT10=
EXTT11=
EXTT12=
EXTT13=
PLAYORDER=
